<svg width="72" height="71" viewBox="0 0 72 71" fill="#2196F3" xmlns="http://www.w3.org/2000/svg">
<path d="M0 0.5V56.7935L36 70.5L72 56.7935V0.5H0ZM17.2397 22.8475C22.3775 22.9286 25.952 25.543 25.9849 30.7459H20.4126C20.4164 29.3573 19.827 28.0353 18.5933 27.5083C17.2013 27.0044 15.4619 27.254 14.5679 28.4466C13.6106 29.8949 13.7813 31.516 13.7813 33.223C13.7285 35.4976 14.879 37.4639 17.1607 37.479C19.4723 37.3613 20.5708 36.2198 20.5928 34.1125H25.9849C25.8554 39.7006 22.1203 41.8682 17.2397 41.8908C11.0758 41.9287 7.86348 37.5356 7.8135 32.3647C7.7772 26.1288 12.1336 22.8983 17.2397 22.8475ZM36.7383 22.8475C40.439 22.808 44.6708 24.438 44.7759 28.5267V28.838H39.3047V28.7357C39.2709 27.393 38.0665 26.873 36.958 26.8678C36.1546 26.8886 34.5691 27.0634 34.5454 28.0685C34.7477 29.6572 38.6469 29.9468 39.8584 30.2477C42.6727 30.8528 45.1958 32.4676 45.2769 35.4688C45.1856 40.3273 41.29 41.8749 37.2701 41.8907C32.4941 41.8561 28.3276 40.6943 28.292 35.3398H33.8116C33.7601 37.2549 35.2372 37.6577 36.7383 37.6613C37.6377 37.6611 39.2914 37.6283 39.3047 36.4338C39.1229 34.9614 35.0915 34.579 33.9389 34.2813C30.9621 33.5261 28.6073 31.9575 28.5864 28.7356C28.7922 24.0478 32.9501 22.862 36.7383 22.8475ZM55.8281 22.8475C59.794 22.8812 63.8614 24.3996 63.8614 28.838H58.3946C58.4433 27.4412 57.1722 26.8731 56.0479 26.8679C55.2445 26.8887 53.659 27.0635 53.6353 28.0686C53.8072 29.6371 57.7516 29.9504 58.9483 30.2478C60.9083 30.7267 62.9096 31.5299 63.8614 33.3164C64.1795 33.8994 64.3451 34.6162 64.3624 35.4688C64.2746 40.3286 60.377 41.875 56.3556 41.8907C51.5824 41.8574 47.4138 40.6914 47.3776 35.3399H52.8971C52.8673 36.5631 53.5129 37.3885 54.6154 37.5813C55.6129 37.6761 58.3762 38.013 58.3946 36.4339C58.1774 34.9379 54.2009 34.5842 53.0289 34.2815C50.0491 33.5257 47.6973 31.9607 47.6764 28.7357C47.8828 24.0446 52.0352 22.862 55.8281 22.8475Z" fill="#2196F3"/>
</svg>
