<svg width="70" height="71" viewBox="0 0 70 71" fill="none" xmlns="http://www.w3.org/2000/svg">
<rect y="0.5" width="70" height="70" rx="4" fill="#333331"/>
<path d="M34.5581 55.275H36.2789C37.5039 55.275 38.6575 54.7033 39.3983 53.7277L50.3139 39.3675L61.2296 53.7277C61.9704 54.7019 63.1239 55.275 64.3489 55.275H66.0698L52.1441 36.9583L65.4456 19.4583H63.7248C62.4998 19.4583 61.3462 20.03 60.6054 21.0056L50.3125 34.5477L40.0181 21.0041C39.2773 20.03 38.1237 19.4583 36.8987 19.4583H35.1779L48.4794 36.9583L34.5581 55.275Z" fill="white"/>
<path d="M34.9998 38.4167V34.0417C34.9998 24.3073 26.33 16.5986 16.2909 18.2159C8.47567 19.4744 2.9165 26.5415 2.9165 34.4559V35.5V38.4167V38.6238C2.9165 48.1802 9.88296 55.8117 18.7657 55.9167C26.1915 56.0042 32.458 51.04 34.38 44.2515H32.8809C31.9767 44.2515 31.1571 44.7692 30.7648 45.5829C28.2288 50.8256 22.3225 54.1317 15.849 52.6442C9.8815 51.2719 5.83317 45.6807 5.83317 39.5586V38.4167H34.9998ZM5.83317 35.0771C5.83317 28.2113 9.92234 22.5981 15.9307 21.255C24.4969 19.3417 32.0832 25.805 32.0832 34.0417V35.5H5.83317V35.0771Z" fill="white"/>
</svg>
