<svg width="70" height="70" viewBox="0 0 70 70" fill="none" xmlns="http://www.w3.org/2000/svg">
<path d="M68.6797 31.8818L38.1167 1.32101C36.3578 -0.439361 33.503 -0.439361 31.7418 1.32101L25.3954 7.66742L33.4461 15.7181C35.3171 15.086 37.4623 15.51 38.9538 17.0015C40.4523 18.5023 40.8732 20.6659 40.2257 22.543L47.9846 30.3019C49.8617 29.6552 52.0276 30.0738 53.5268 31.5753C55.6221 33.6698 55.6221 37.0646 53.5268 39.1606C51.4308 41.2566 48.036 41.2566 45.9393 39.1606C44.3632 37.583 43.9738 35.2681 44.7718 33.3265L37.536 26.0907L37.5352 45.1322C38.046 45.3857 38.5283 45.7228 38.9538 46.1468C41.0491 48.2413 41.0491 51.6361 38.9538 53.7336C36.8578 55.8288 33.4615 55.8288 31.3686 53.7336C29.2733 51.6361 29.2733 48.2413 31.3686 46.1468C31.8862 45.6299 32.4853 45.239 33.1243 44.9763V25.7573C32.4853 25.4962 31.887 25.1076 31.3686 24.5868C29.781 23.0016 29.3993 20.6721 30.2126 18.7227L22.2771 10.7857L1.32086 31.7404C-0.440285 33.5024 -0.440285 36.3572 1.32086 38.1176L31.8839 68.6791C33.6435 70.4395 36.4976 70.4395 38.2595 68.6791L68.6797 38.2597C70.4401 36.4985 70.4401 33.6421 68.6797 31.8818Z" fill="#F05033"/>
</svg>
