<svg width="63" height="63" viewBox="0 0 63 63" fill="#FFC107" xmlns="http://www.w3.org/2000/svg">
<path fill-rule="evenodd" clip-rule="evenodd" d="M63 4C63 1.79086 61.2091 0 59 0H4C1.79086 0 0 1.79086 0 4V59C0 61.2091 1.79086 63 4 63H59C61.2091 63 63 61.2091 63 59V4ZM33.6 33.6C33.6 31.3722 34.485 29.2356 36.0603 27.6603C37.6356 26.085 39.7722 25.2 42 25.2H46.9014C51.1518 25.2 54.6 28.644 54.6 32.8986V32.8986C54.6 33.286 54.286 33.6 53.8986 33.6H51.1014C50.714 33.6 50.4 33.286 50.4 32.8986V32.8986C50.4 32.4392 50.3095 31.9842 50.1337 31.5597C49.9579 31.1353 49.7002 30.7496 49.3753 30.4247C49.0504 30.0998 48.6647 29.8421 48.2403 29.6663C47.8158 29.4905 47.3608 29.4 46.9014 29.4H42C40.8861 29.4 39.8178 29.8425 39.0302 30.6302C38.2425 31.4178 37.8 32.4861 37.8 33.6C37.8 34.7139 38.2425 35.7822 39.0302 36.5698C39.8178 37.3575 40.8861 37.8 42 37.8H46.2C48.4278 37.8 50.5644 38.685 52.1397 40.2603C53.715 41.8356 54.6 43.9722 54.6 46.2C54.6 48.4278 53.715 50.5644 52.1397 52.1397C50.5644 53.715 48.4278 54.6 46.2 54.6H42C39.7722 54.6 37.6356 53.715 36.0603 52.1397C34.9849 51.0643 34.2312 49.7273 33.8611 48.2783C33.5741 47.1545 34.5402 46.2 35.7 46.2V46.2C36.8598 46.2 37.7581 47.1958 38.3142 48.2136C38.5044 48.5618 38.7446 48.8843 39.0302 49.1698C39.8178 49.9575 40.8861 50.4 42 50.4H46.2C47.3139 50.4 48.3822 49.9575 49.1698 49.1698C49.9575 48.3822 50.4 47.3139 50.4 46.2C50.4 45.0861 49.9575 44.0178 49.1698 43.2302C48.3822 42.4425 47.3139 42 46.2 42H42C39.7722 42 37.6356 41.115 36.0603 39.5397C34.485 37.9644 33.6 35.8278 33.6 33.6ZM27.3 25.2C26.1402 25.2 25.2 26.1402 25.2 27.3V46.2C25.2 47.3139 24.7575 48.3822 23.9698 49.1698C23.1822 49.9575 22.1139 50.4 21 50.4C19.8861 50.4 18.8178 49.9575 18.0302 49.1698C17.7446 48.8843 17.5044 48.5618 17.3142 48.2136C16.7581 47.1958 15.8598 46.2 14.7 46.2V46.2C13.5402 46.2 12.5741 47.1545 12.8611 48.2783C13.2312 49.7273 13.9849 51.0643 15.0603 52.1397C16.6356 53.715 18.7722 54.6 21 54.6C23.2278 54.6 25.3644 53.715 26.9397 52.1397C28.515 50.5644 29.4 48.4278 29.4 46.2V27.3C29.4 26.1402 28.4598 25.2 27.3 25.2V25.2Z" fill="#FFC107"/>
</svg>
