<svg width="70" height="71" viewBox="0 0 70 71" fill="#001E2B" xmlns="http://www.w3.org/2000/svg">
<path d="M35 70.5C54.33 70.5 70 54.83 70 35.5C70 16.17 54.33 0.5 35 0.5C15.67 0.5 0 16.17 0 35.5C0 54.83 15.67 70.5 35 70.5Z" fill="#001E2B"/>
<path d="M44.3555 31.2234C42.1448 21.4665 36.9201 18.2584 36.3575 17.0327C35.7423 16.168 35.1188 14.6299 35.1188 14.6299C35.1086 14.6039 35.0922 14.5581 35.073 14.5137C35.0094 15.3784 34.9766 15.712 34.1591 16.5843C32.893 17.5741 26.3975 23.0244 25.8691 34.1096C25.3762 44.4482 33.3374 50.6088 34.414 51.3942L34.5364 51.4811V51.4735C34.5432 51.5255 34.8782 53.9345 35.1134 56.487H35.9569C36.1548 54.6827 36.4515 52.8906 36.8456 51.1187L36.9139 51.0743C37.3955 50.729 37.8547 50.3534 38.2886 49.9498L38.3379 49.9054C40.6265 47.791 44.7411 42.9006 44.7008 35.1035C44.6922 33.8029 44.5768 32.5051 44.3555 31.2234ZM35.0238 45.557C35.0238 45.557 35.0238 31.0566 35.5023 31.0594C35.8756 31.0594 36.3589 49.7632 36.3589 49.7632C35.6944 49.6832 35.0238 46.685 35.0238 45.557Z" fill="#00ED64"/>
</svg>
