<svg width="61" height="67" viewBox="0 0 61 67" fill="none" xmlns="http://www.w3.org/2000/svg">
<path d="M17.8794 21.9964C17.8489 21.5916 18.2419 21.2572 18.6446 21.2952C19.7103 21.2881 20.7774 21.2811 21.8431 21.298C22.288 21.2881 22.5943 21.7241 22.5392 22.1319C22.5377 25.4941 22.5388 28.8564 22.5399 32.2186C22.5419 38.0333 22.5438 43.8479 22.5319 49.6625C22.535 52.1082 21.5068 54.7695 19.1919 55.966L17.8794 21.9964ZM17.8794 21.9964C17.8719 26.7688 17.873 31.542 17.8741 36.3154C17.8752 40.6615 17.8762 45.0077 17.8707 49.3536M17.8794 21.9964L17.8707 49.3536M17.8707 49.3536C17.8939 50.615 17.0417 51.8272 15.8261 52.2533L17.8707 49.3536ZM33.0029 1.82345L33.0063 1.82533C36.4735 3.73991 39.9409 5.65311 43.4081 7.56625C48.3112 10.2717 53.2141 12.977 58.116 15.6859L58.1167 15.6863C59.5395 16.4695 60.4829 18.0169 60.4685 19.5942V19.5988L60.4685 47.4048L60.4685 47.4079C60.4789 49.0473 59.4437 50.6355 57.9359 51.4045L57.9288 51.4081L57.9218 51.412C53.4895 53.8541 49.0577 56.2981 44.6263 58.7419C40.7178 60.8973 36.8095 63.0526 32.9012 65.2064L32.8987 65.2078C31.3615 66.0666 29.344 66.0019 27.8491 65.069L27.8401 65.0633L27.8308 65.0581C26.4796 64.2926 25.1252 63.5282 23.7714 62.764C22.6219 62.1151 21.4727 61.4665 20.3261 60.8176C19.9758 60.6135 19.7249 60.46 19.5576 60.3337C19.5528 60.3301 19.5482 60.3265 19.5437 60.3231C19.6754 60.2483 19.8752 60.156 20.1658 60.041L19.9817 59.5761L20.1658 60.041C21.2813 59.5993 22.1998 59.1828 23.1766 58.668L23.1999 58.6557L23.2217 58.6411C23.233 58.6336 23.2478 58.6268 23.2828 58.6303C23.3242 58.6345 23.3837 58.6535 23.4499 58.6948L23.4599 58.7011L23.4702 58.7068C24.3763 59.2145 25.2851 59.732 26.1957 60.2505C27.4195 60.9473 28.6467 61.6461 29.8748 62.3254C30.2199 62.5193 30.5647 62.5064 30.85 62.4257C31.1054 62.3535 31.3411 62.2181 31.507 62.1229L31.5257 62.1122L31.5258 62.1121C36.8415 59.0617 42.2238 56.1324 47.6108 53.2006C50.4849 51.6364 53.3603 50.0715 56.2276 48.4871C56.7134 48.2503 56.9747 47.749 56.9446 47.2444C56.9482 41.4137 56.9478 35.5823 56.9474 29.7512C56.9471 26.4214 56.9469 23.0917 56.9474 19.7623C56.991 19.1788 56.6463 18.6672 56.1473 18.4363C51.5064 15.8821 46.8671 13.3259 42.2279 10.7698C38.5681 8.75328 34.9084 6.73681 31.2478 4.72128C30.8002 4.4327 30.2011 4.43206 29.7528 4.71956C26.0751 6.74511 22.3987 8.77208 18.7226 10.7989C14.1006 13.3473 9.47885 15.8955 4.85523 18.4404C4.37035 18.6656 4.00095 19.1662 4.05262 19.7656C4.05357 25.8725 4.05326 31.9801 4.05294 38.0879C4.05278 41.1393 4.05262 44.1908 4.05262 47.2423C4.01704 47.7526 4.30606 48.2433 4.75914 48.4707L4.82646 48.5138C4.88706 48.5525 4.97581 48.6087 5.0895 48.6797C5.31683 48.8218 5.64405 49.0232 6.04527 49.2616C6.847 49.7379 7.94749 50.3639 9.13879 50.9599C10.3272 51.5544 11.6205 52.1264 12.8049 52.4875C13.9588 52.8393 15.1249 53.0289 15.9915 52.7251C17.4043 52.2299 18.3956 50.8298 18.3707 49.3495C18.3762 45.0017 18.3752 40.6577 18.3741 36.3144C18.373 31.5428 18.3719 26.7719 18.3794 21.9972L18.3794 21.978L18.378 21.9589C18.3762 21.9359 18.3844 21.8958 18.4328 21.8525C18.4832 21.8075 18.547 21.7882 18.5977 21.793L18.6227 21.7953L18.6479 21.7951C19.7145 21.7881 20.776 21.7811 21.8352 21.7979L21.8447 21.7981L21.8542 21.7979C21.8986 21.7969 21.9443 21.815 21.9862 21.8681C22.0322 21.9264 22.0521 22.0028 22.0437 22.065L22.0392 22.0982L22.0392 22.1316C22.0377 25.4947 22.0388 28.8573 22.0399 32.2196C22.0419 38.0338 22.0438 43.8474 22.0319 49.6615L22.0319 49.6631C22.0349 51.9989 21.0521 54.4407 18.964 55.5209C16.2839 56.8768 12.9288 56.6024 10.2184 55.2705L10.2171 55.2698C8.70702 54.5332 7.25642 53.7231 5.79178 52.9051C4.89556 52.4045 3.99408 51.901 3.0705 51.4097L3.07055 51.4096L3.06134 51.4049C1.55202 50.6415 0.521027 49.0478 0.531456 47.4082V47.405L0.531479 19.5988L0.531433 19.5939C0.515889 17.9836 1.49712 16.4075 2.96441 15.6356L2.96445 15.6357L2.97309 15.6309C9.37743 12.0989 15.781 8.56471 22.1842 5.03075C24.1202 3.96226 26.0562 2.89378 27.9921 1.8254L27.9946 1.82399C29.5087 0.977002 31.4923 0.973857 33.0029 1.82345ZM19.3973 60.1889C19.3972 60.1888 19.3976 60.1893 19.3983 60.1904L19.3973 60.1889ZM19.3838 60.4322C19.3813 60.4352 19.3797 60.4367 19.3795 60.4368C19.3793 60.4369 19.3805 60.4353 19.3838 60.4322Z" fill="#539E43" stroke="#539E43"/>
<path d="M45.8323 22.2646C42.5588 20.5133 38.6644 20.42 35.0267 20.649C32.3987 20.9087 29.6347 21.6339 27.7201 23.5178C25.7562 25.4115 25.3287 28.4696 26.2616 30.9418C26.93 32.6889 28.6126 33.8249 30.3526 34.4258C32.5939 35.2171 34.948 35.4617 37.3027 35.7064C39.4505 35.9296 41.5991 36.1529 43.6634 36.7911C44.5067 37.0705 45.4887 37.498 45.747 38.4156C45.9856 39.5021 45.7241 40.7652 44.8419 41.5201C42.0397 43.738 34.2448 43.3982 31.4762 41.6525C30.3568 40.9089 29.8744 39.5924 29.6783 38.3378C29.6565 37.9468 29.3417 37.5882 28.9173 37.618C27.8544 37.6053 26.7915 37.6082 25.7286 37.6166C25.3578 37.5854 24.9723 37.8493 24.9519 38.2278C24.7334 43.974 30.0109 46.479 34.962 47.0305C37.7907 47.3 40.6815 47.2846 43.467 46.6775C45.5609 46.2008 47.6605 45.3228 49.1019 43.7101C50.8794 41.75 51.2288 38.8318 50.4317 36.3903C49.8223 34.5685 48.0807 33.4 46.3004 32.7988C43.8793 31.9686 41.0101 31.5224 38.8173 31.3135C35.63 31.01 31.8425 31.134 30.9404 29.0396C30.5806 27.943 30.8867 26.5813 31.8945 25.9067C34.561 24.0981 39.988 24.3383 42.7494 25.6895C44.0173 26.3244 44.7521 27.6285 45.0554 28.945C45.1116 29.3317 45.3718 29.7353 45.8194 29.7184C46.8751 29.7395 47.9307 29.724 48.9861 29.7254C49.3487 29.7507 49.7457 29.5461 49.8165 29.1749C49.7717 26.4233 48.3666 23.6066 45.8323 22.2646Z" fill="#539E43"/>
</svg>
