<svg width="80" height="80" viewBox="0 0 70 70" fill="none" xmlns="http://www.w3.org/2000/svg">
<path d="M55.6165 0.958862H14.3836C6.96941 0.958862 0.958984 6.96929 0.958984 14.3835V55.6164C0.958984 63.0306 6.96941 69.0411 14.3836 69.0411H55.6165C63.0308 69.0411 69.0412 63.0306 69.0412 55.6164V14.3835C69.0412 6.96929 63.0308 0.958862 55.6165 0.958862Z" fill="#F1F3F4"/>
<path d="M45.2169 48.2138C45.5283 45.6222 45.435 45.2417 47.3654 45.6618L47.8554 45.7047C49.3398 45.7721 51.2817 45.4659 52.4227 44.9359C54.8787 43.7961 56.3346 41.8939 53.9135 42.3934C48.3897 43.5331 48.0101 41.6626 48.0101 41.6626C53.8429 33.0084 56.281 22.0224 54.1761 19.3331C48.4357 11.9984 38.4994 15.4668 38.3332 15.5565L38.28 15.5664C37.1887 15.3399 35.9672 15.2046 34.595 15.1824C32.0953 15.1411 30.1987 15.8377 28.7598 16.9287C28.7598 16.9287 11.0337 9.62567 11.8585 26.1129C12.0338 29.6201 16.8856 52.6518 22.6727 45.6952C24.788 43.1515 26.8318 41.0005 26.8318 41.0005C27.8466 41.6745 29.0621 42.0189 30.3363 41.8951L30.4351 41.811C30.4042 42.1268 30.4177 42.4358 30.4744 42.8016C28.984 44.4673 29.4219 44.7597 26.4415 45.373C23.4257 45.9943 25.1974 47.1007 26.3538 47.3899C27.7562 47.7406 31 48.2373 33.1922 45.1691L33.105 45.519C33.6897 45.9871 33.6504 48.8819 33.733 50.9499C33.8159 53.0184 33.9543 54.9484 34.376 56.0865C34.7977 57.2243 35.2952 60.1552 39.2123 59.3157C42.4859 58.6159 44.9888 57.6063 45.2169 48.2138Z" fill="#303030"/>
<path d="M37.9369 61.3623C36.2045 61.3623 35.0763 60.6923 34.3912 60.0453C33.3569 59.0694 32.9467 57.8122 32.7016 57.0612L32.5957 56.7478C32.1022 55.4157 31.9347 53.4976 31.8356 51.0277C31.8205 50.6568 31.8102 50.2747 31.7987 49.8697C31.7903 49.5734 31.78 49.2017 31.765 48.8129C31.1489 49.1072 30.4903 49.3167 29.7965 49.4349C28.575 49.6436 27.2619 49.5761 25.8929 49.2338C24.9269 48.9922 23.9232 48.4915 23.3512 47.7184C21.6838 49.1786 20.0934 48.9807 19.227 48.6915C17.6985 48.1817 16.3306 46.7492 15.0449 44.313C14.1289 42.5774 13.2431 40.3162 12.4116 37.5916C10.9636 32.847 10.0436 27.8496 9.96189 26.2089C9.70482 21.0735 11.0873 17.4008 14.0702 15.2938C18.7755 11.9702 25.9048 13.9248 28.504 14.8122C30.2503 13.7598 32.3049 13.2476 34.6264 13.2845C35.8733 13.3047 37.0606 13.4142 38.1635 13.611C39.3139 13.2492 41.5863 12.7299 44.1875 12.7624C48.9801 12.8196 52.9515 14.6873 55.6718 18.1636C57.6133 20.6438 56.6532 25.8522 55.9086 28.7363C54.8605 32.793 53.0241 37.1076 50.7685 40.8636C51.381 40.868 52.2684 40.7946 53.5299 40.534C56.0189 40.0202 56.7468 41.3548 56.9444 41.9522C57.7358 44.3491 54.2956 46.1605 53.2225 46.6588C51.8475 47.2971 49.6057 47.6858 47.7697 47.6017L47.6896 47.5966L47.2072 47.5541L47.1596 47.9564L47.1136 48.3495C46.9902 53.1096 46.3102 56.1242 44.9111 58.1161C43.4444 60.2043 41.4061 60.7895 39.6106 61.1743C38.9981 61.3052 38.4415 61.3623 37.9369 61.3623ZM34.2912 44.0377C35.4095 44.9327 35.5075 46.6167 35.5952 49.7638C35.6063 50.1565 35.6166 50.5282 35.6305 50.8754C35.6725 51.9266 35.7713 54.3882 36.1569 55.4284C36.2113 55.5756 36.26 55.7247 36.3116 55.883C36.7413 57.1985 36.9567 57.8582 38.8145 57.4611C40.3739 57.1267 41.1757 56.8268 41.8033 55.9334C42.7153 54.6346 43.2255 52.0219 43.3191 48.1678L45.2165 48.2139L43.3322 47.9877L43.3877 47.5172C43.5682 45.9661 43.6983 44.8458 44.7349 44.1048C45.5668 43.5105 46.5146 43.568 47.2695 43.7041C46.44 43.0773 46.2107 42.3422 46.1496 42.0407L45.9913 41.2611L46.436 40.6014C48.9976 36.801 51.1096 32.1301 52.2315 27.7862C53.3843 23.3228 53.0329 20.9525 52.6814 20.5042C48.0284 14.5587 39.9597 17.0136 39.1171 17.2921L38.9747 17.369L38.2606 17.5019L37.8949 17.4261C36.8865 17.2167 35.7661 17.1008 34.5653 17.0814C32.6786 17.0497 31.1564 17.4956 29.9084 18.4425L29.0423 19.0991L28.0375 18.6853C25.8905 17.8074 19.5844 16.0424 16.2568 18.3993C14.4098 19.7076 13.5684 22.2711 13.7556 26.0188C13.8175 27.2562 14.6581 31.9401 16.045 36.4828C17.9615 42.7607 19.703 44.8462 20.4302 45.0886C20.5572 45.1314 20.8864 44.8756 21.2141 44.482C23.3444 41.9197 25.3712 39.7834 25.4565 39.6938L26.5554 38.5373L27.884 39.42C28.4195 39.7759 29.0102 39.9778 29.6168 40.0159L32.7853 37.3135L32.3263 41.9978C32.316 42.103 32.3108 42.2462 32.3521 42.512L32.4901 43.3998L31.8911 44.0694L31.8221 44.1472L33.5628 44.9505L34.2912 44.0377Z" fill="#2F6792"/>
<path d="M53.9137 42.3933C48.3895 43.5331 48.0099 41.6626 48.0099 41.6626C53.8427 33.008 56.2808 22.0216 54.1767 19.3331C48.4363 11.9987 38.4992 15.4672 38.3334 15.5572L38.2798 15.5667C37.1885 15.3402 35.967 15.2053 34.594 15.1831C32.0943 15.1423 30.1985 15.8385 28.7596 16.9294C28.7596 16.9294 11.0331 9.62682 11.8575 26.1136C12.0328 29.6213 16.8846 52.653 22.6717 45.6963C24.787 43.1526 26.8304 41.0017 26.8304 41.0017C27.8456 41.6757 29.0607 42.02 30.3345 41.8962L30.4337 41.8121C30.4028 42.1279 30.4171 42.4369 30.4734 42.8027C28.9826 44.4685 29.4205 44.7609 26.4401 45.3742C23.4243 45.9954 25.196 47.1018 26.3528 47.391C27.7548 47.7417 30.999 48.2384 33.1908 45.1703L33.1032 45.5202C33.6875 45.9883 34.0977 48.5637 34.0291 50.8983C33.9601 53.233 33.914 54.8361 34.3746 56.0881C34.8348 57.3401 35.2934 60.1567 39.2113 59.3173C42.4849 58.6159 44.1812 56.7978 44.4177 53.7653C44.5851 51.6092 44.9639 51.9282 44.9881 50.0006L45.2924 49.0882C45.6431 46.1656 45.348 45.223 47.3652 45.6614L47.8551 45.7042C49.3396 45.7717 51.2823 45.4654 52.4228 44.9354C54.8785 43.7965 56.3348 41.8939 53.9137 42.3933Z" fill="#2F6792"/>
<path d="M38.135 60.1924C34.8693 60.1924 33.8347 57.6063 33.4114 56.5486C32.7917 54.9987 32.658 48.9838 32.7961 44.0511C32.8056 43.7016 33.0952 43.4255 33.4467 43.4362C33.7962 43.4458 34.0715 43.7369 34.0616 44.0864C33.9025 49.7756 34.1282 54.9313 34.5868 56.0785C35.3025 57.8673 36.3879 59.4319 39.4564 58.7746C42.3694 58.1497 43.4604 57.0453 43.9464 54.2283C44.3193 52.0666 45.0568 45.9169 45.1476 44.7033C45.1738 44.355 45.4761 44.0928 45.826 44.1194C46.1743 44.1456 46.4357 44.4494 46.4099 44.7977C46.3151 46.0613 45.5812 52.1991 45.194 54.4437C44.6204 57.7709 43.1371 59.28 39.7218 60.0123C39.1414 60.1365 38.6142 60.192 38.135 60.1924ZM20.4275 47.5608C20.1161 47.5608 19.8333 47.5033 19.5881 47.422C17.4669 46.7142 15.4465 43.2597 13.5827 37.1532C12.1641 32.505 11.2652 27.6532 11.1862 26.0763C10.9526 21.4015 12.1562 18.0941 14.7645 16.2467C19.9245 12.5906 28.6049 16.0721 28.9718 16.2221C29.2951 16.3542 29.4507 16.7239 29.3182 17.0476C29.1861 17.3709 28.8163 17.5261 28.493 17.3943C28.4093 17.3602 20.0856 14.0255 15.4937 17.2813C13.2634 18.8626 12.2395 21.8006 12.4501 26.0132C12.5164 27.3418 13.3562 32.0769 14.7931 36.7834C16.4569 42.235 18.3504 45.6749 19.9884 46.2211C20.2454 46.3068 21.0278 46.5675 22.1461 45.2226C24.2506 42.6908 26.1838 40.67 26.2032 40.6502C26.4452 40.3979 26.8459 40.3895 27.0982 40.6315C27.3505 40.8735 27.3592 41.2742 27.1172 41.5261C27.0982 41.5459 25.1944 43.5362 23.1196 46.0323C22.1369 47.2141 21.1952 47.5608 20.4275 47.5608ZM47.9706 42.2271C47.8488 42.2271 47.7258 42.1922 47.6171 42.1192C47.3275 41.9236 47.2505 41.5305 47.4461 41.2405C53.3424 32.4911 55.412 21.9192 53.6395 19.654C51.4084 16.8033 48.2582 15.3144 44.2756 15.2283C41.3269 15.1649 38.9832 15.9178 38.5999 16.0491L38.5035 16.0884C38.1183 16.2094 37.8228 15.9983 37.7113 15.7516C37.5792 15.4596 37.6875 15.1145 37.9616 14.9482C37.9799 14.9375 38.0378 14.9129 38.1318 14.8784C38.7828 14.64 41.1623 13.9259 44.1094 13.9597C48.516 14.0065 52.1562 15.7056 54.6357 18.8741C55.8087 20.3732 55.8115 23.827 54.6432 28.3502C53.4523 32.962 51.2113 37.918 48.4954 41.9482C48.374 42.1295 48.1741 42.2271 47.9706 42.2271ZM48.2721 46.2775C47.2652 46.2775 46.3627 46.1354 45.8224 45.8117C45.267 45.4789 45.1611 45.0266 45.1472 44.7866C44.9957 42.1247 46.4643 41.6614 47.2133 41.4499C47.1089 41.292 46.9605 41.1064 46.807 40.9148C46.3702 40.3689 45.772 39.6215 45.311 38.5036C45.2388 38.329 45.0127 37.9232 44.7509 37.4531C43.3311 34.907 40.3768 29.609 42.2746 26.8959C43.153 25.6403 44.902 25.146 47.479 25.4217C46.7209 23.1121 43.1109 15.8873 34.5448 15.7468C31.9686 15.704 29.8557 16.4962 28.2681 18.0993C24.7136 21.6891 24.8421 28.1844 24.8441 28.2495C24.8532 28.599 24.5775 28.8898 24.228 28.8989C23.8785 28.91 23.5881 28.6323 23.5786 28.2828C23.5707 27.9944 23.4381 21.1781 27.3687 17.2083C29.2083 15.3505 31.6298 14.4333 34.5658 14.4813C40.0459 14.5714 43.5735 17.3575 45.5673 19.6786C47.7409 22.2084 48.8064 24.9988 48.8941 25.9303C48.9596 26.623 48.4625 26.7614 48.3621 26.782L48.1336 26.7872C45.6046 26.3822 43.9821 26.6634 43.3112 27.6219C41.8676 29.6852 44.6624 34.6968 45.8557 36.837C46.1604 37.3829 46.3802 37.7776 46.4809 38.0212C46.8729 38.9717 47.3842 39.6104 47.7948 40.1237C48.1562 40.5752 48.4692 40.9667 48.5811 41.4261C48.6331 41.5174 49.3705 42.6083 53.7466 41.705C54.8435 41.4789 55.5013 41.6721 55.7024 42.2802C56.0979 43.4763 53.8787 44.8715 52.6501 45.442C51.5493 45.9538 49.7923 46.2775 48.2721 46.2775ZM46.4091 44.6823C46.548 44.8223 47.2426 45.0639 48.6811 45.0021C49.9601 44.9473 51.3089 44.6692 52.1181 44.2935C53.1532 43.8127 53.8442 43.2752 54.2021 42.9082L54.0037 42.9447C51.2057 43.5223 49.2265 43.4454 48.1213 42.7158C48.0424 42.6639 47.9714 42.6099 47.9071 42.5567C47.7873 42.6039 47.6766 42.6349 47.5977 42.6571C46.9709 42.8328 46.3226 43.0149 46.4091 44.6823ZM28.3343 48.219C27.6393 48.219 26.9078 48.1241 26.1608 47.9373C25.3868 47.7437 24.082 47.1609 24.1018 46.2037C24.1245 45.1298 25.6863 44.8077 26.2742 44.6867C28.3982 44.2491 28.5366 44.0738 29.2003 43.2307C29.3939 42.9852 29.6347 42.6793 29.9632 42.3128C30.4508 41.7669 30.9835 41.4904 31.5469 41.4904C31.9392 41.4904 32.2609 41.6233 32.4736 41.7118C33.1511 41.9926 33.7165 42.6718 33.9489 43.4838C34.1588 44.2166 34.0584 44.9219 33.6673 45.4698C32.3831 47.268 30.5388 48.219 28.3343 48.219ZM25.4693 46.258C25.6601 46.4056 26.0425 46.6028 26.4682 46.7091C27.1152 46.8709 27.7428 46.9531 28.3347 46.9531C30.1381 46.9531 31.5861 46.2065 32.6378 44.7339C32.8572 44.4268 32.7913 44.0369 32.7326 43.8318C32.6096 43.4021 32.3042 43.0114 31.9896 42.8809C31.819 42.8102 31.6774 42.7563 31.5473 42.7563C31.4774 42.7563 31.2648 42.7563 30.907 43.1566C30.6047 43.4942 30.3869 43.7707 30.1953 44.0142C29.3685 45.0639 28.9897 45.4202 26.5301 45.9268C25.9299 46.0498 25.622 46.1751 25.4693 46.258ZM30.3365 43.3383C30.0295 43.3383 29.7597 43.1141 29.7117 42.8011C29.6958 42.696 29.6855 42.5905 29.68 42.4841C28.0677 42.454 26.5122 41.7621 25.3312 40.53C23.838 38.9721 23.1585 36.8136 23.4671 34.6083C23.8023 32.2134 23.677 30.0993 23.6095 28.9635C23.5909 28.6478 23.5774 28.4197 23.5782 28.2618C23.5794 28.0614 23.5833 27.5302 25.359 26.6301C25.9906 26.31 27.2569 25.7514 28.6402 25.6082C30.932 25.3714 32.4426 26.3921 32.8949 28.4827C34.1155 34.1271 32.9917 36.6236 32.1709 38.4468C32.0181 38.7864 31.8737 39.107 31.7583 39.4176L31.6564 39.6913C31.2227 40.8541 30.8479 41.8585 30.9629 42.6087C31.0161 42.9542 30.7788 43.2772 30.4333 43.3303L30.3365 43.3383ZM24.848 28.4371L24.8726 28.889C24.9425 30.0688 25.0726 32.2642 24.7203 34.784C24.466 36.6029 25.0214 38.3782 26.2449 39.654C27.2116 40.6625 28.4839 41.219 29.7914 41.219H29.8184C29.9648 40.6022 30.208 39.9508 30.4698 39.249L30.571 38.9768C30.7015 38.6262 30.8542 38.2866 31.0161 37.9272C31.8059 36.1721 32.7893 33.9875 31.6567 28.7505C31.4326 27.7131 30.8887 27.1129 29.9949 26.9149C28.159 26.5095 25.4229 27.8904 24.848 28.4371ZM28.6683 28.1685C28.6366 28.3923 29.0781 28.9897 29.6542 29.0695C30.229 29.15 30.7209 28.6827 30.7523 28.4589C30.7836 28.2352 30.3425 27.9884 29.7664 27.9083C29.1908 27.8282 28.6989 27.9448 28.6683 28.1685ZM29.7863 29.2896L29.6248 29.2785C29.2678 29.2289 28.9068 29.004 28.6596 28.6763C28.5727 28.5613 28.4311 28.3383 28.4593 28.1392C28.4993 27.8472 28.8556 27.6723 29.4114 27.6723C29.5356 27.6723 29.6649 27.6814 29.795 27.6996C30.0989 27.7417 30.3809 27.8294 30.5892 27.9456C30.9502 28.1471 30.9768 28.3721 30.9605 28.4883C30.9161 28.8108 30.4032 29.2896 29.7863 29.2896ZM28.8782 28.2058C28.8961 28.3439 29.238 28.7993 29.6831 28.8608L29.7867 28.8679C30.1977 28.8679 30.5047 28.5446 30.5408 28.4387C30.5027 28.3665 30.2385 28.1872 29.7375 28.1174C29.6264 28.1015 29.5169 28.094 29.4118 28.094C29.0897 28.094 28.9187 28.1666 28.8782 28.2058ZM46.1767 27.7119C46.208 27.9357 45.7669 28.5331 45.1912 28.6132C44.616 28.6934 44.1237 28.2265 44.092 28.0027C44.0618 27.779 44.5029 27.5318 45.0782 27.4521C45.6534 27.3716 46.1449 27.4886 46.1767 27.7119ZM45.0583 28.7275C44.5045 28.7275 44.0265 28.2967 43.9872 28.017C43.9416 27.6814 44.4942 27.4263 45.0631 27.3474C45.1885 27.3299 45.3126 27.3212 45.432 27.3212C45.9232 27.3212 46.2485 27.4652 46.281 27.6976C46.302 27.848 46.1866 28.0801 45.9878 28.2895C45.8565 28.4272 45.5808 28.6656 45.2051 28.7176L45.0583 28.7275ZM45.4324 27.5322C45.3229 27.5322 45.2087 27.5406 45.0928 27.5564C44.5212 27.6362 44.18 27.8655 44.1967 27.9884C44.2157 28.1237 44.5807 28.5168 45.0587 28.5168L45.1766 28.5085C45.4888 28.4653 45.7232 28.2614 45.8351 28.1439C46.0108 27.9595 46.0807 27.7857 46.0723 27.7266C46.0612 27.6481 45.8502 27.5322 45.4324 27.5322ZM47.0054 40.5613C46.8844 40.5613 46.7622 40.5264 46.6539 40.4542C46.3635 40.2598 46.2854 39.8667 46.4801 39.5763C47.8282 37.563 47.5814 35.51 47.343 33.5245C47.241 32.6787 47.1363 31.804 47.1633 30.9645C47.191 30.1009 47.3009 29.3884 47.4068 28.6993C47.5326 27.8829 47.6516 27.1117 47.6024 26.1961C47.5834 25.847 47.8512 25.5491 48.2003 25.53C48.5506 25.5114 48.8477 25.7788 48.8663 26.1279C48.9227 27.1744 48.7882 28.0471 48.6581 28.8917C48.5577 29.5435 48.4538 30.2175 48.4288 31.005C48.4046 31.7484 48.4994 32.5379 48.5998 33.3733C48.8536 35.4846 49.1413 37.8776 47.5322 40.2804C47.41 40.4625 47.2097 40.5613 47.0054 40.5613Z" fill="white"/>
</svg>
