<svg width="74" height="67" viewBox="0 0 74 67" fill="none" xmlns="http://www.w3.org/2000/svg">
<path d="M36.75 38.7485C35.3576 38.7485 34.0223 38.1954 33.0377 37.2108C32.0531 36.2263 31.5 34.8909 31.5 33.4985C31.5 32.1061 32.0531 30.7708 33.0377 29.7862C34.0223 28.8016 35.3576 28.2485 36.75 28.2485C38.1424 28.2485 39.4777 28.8016 40.4623 29.7862C41.4469 30.7708 42 32.1061 42 33.4985C42 34.8909 41.4469 36.2263 40.4623 37.2108C39.4777 38.1954 38.1424 38.7485 36.75 38.7485ZM34.902 49.2275C35.5133 49.9649 36.1293 50.6754 36.75 51.359C37.3707 50.6777 37.9867 49.9672 38.598 49.2275C37.3661 49.2535 36.1339 49.2535 34.902 49.2275ZM27.9195 48.79C25.2321 48.5092 22.5622 48.0804 19.922 47.5055C19.6583 48.7305 19.46 49.9147 19.327 51.058C18.662 56.5985 19.5895 59.9655 21 60.7775C22.4105 61.5895 25.788 60.711 30.2575 57.3685C31.1792 56.6779 32.1055 55.9137 33.0365 55.076C31.2165 53.0764 29.5082 50.9779 27.9195 48.79ZM53.578 47.5055C50.9378 48.0804 48.2679 48.5092 45.5805 48.79C43.9918 50.9779 42.2835 53.0764 40.4635 55.076C41.3968 55.916 42.3232 56.6802 43.2425 57.3685C47.712 60.711 51.0895 61.593 52.5 60.7775C53.9105 59.9655 54.8345 56.5985 54.1765 51.058C54.0337 49.8652 53.8316 48.6798 53.578 47.5055ZM58.6565 46.1475C60.676 55.384 59.6155 62.7375 55.1285 65.3275C50.6415 67.9175 43.743 65.1595 36.7535 58.793C29.764 65.1595 22.8655 67.914 18.3785 65.324C13.8915 62.734 12.831 55.384 14.847 46.144C5.8345 43.2775 0 38.6785 0 33.4985C0 28.3185 5.8345 23.723 14.8435 20.853C12.8275 11.613 13.888 4.26302 18.375 1.67302C22.862 -0.916975 29.7605 1.83752 36.75 8.20402C43.7395 1.83752 50.638 -0.916975 55.125 1.67302C59.612 4.26302 60.6725 11.613 58.6565 20.853C67.662 23.723 73.4965 28.3185 73.4965 33.4985C73.4965 38.6785 67.662 43.2775 58.6565 46.1475ZM33.033 11.921C32.1043 11.0834 31.1792 10.3192 30.2575 9.62852C25.788 6.28602 22.4105 5.40402 20.9965 6.21952C19.586 7.03152 18.662 10.3985 19.32 15.9425C19.46 17.0859 19.6583 18.27 19.915 19.495C22.5563 18.9189 25.2273 18.4889 27.916 18.207C29.582 15.918 31.2877 13.8227 33.033 11.921ZM45.5805 18.207C48.268 18.489 50.9379 18.919 53.578 19.495C53.8417 18.2677 54.04 17.0835 54.173 15.9425C54.838 10.3985 53.9105 7.03152 52.5 6.21952C51.0895 5.40752 47.712 6.28602 43.2425 9.62852C42.3208 10.3192 41.3945 11.0834 40.4635 11.921C42.2088 13.8227 43.9145 15.918 45.5805 18.207ZM38.598 17.7695C37.9867 17.0322 37.3707 16.3217 36.75 15.638C36.1317 16.3217 35.5157 17.0322 34.902 17.7695C36.1339 17.7435 37.3661 17.7435 38.598 17.7695ZM24.052 42.9625C23.4136 41.9093 22.7974 40.8427 22.204 39.7635C21.8703 40.6619 21.5635 41.5509 21.2835 42.4305C22.1842 42.6242 23.1058 42.8015 24.0485 42.9625M30.8105 43.7815C34.7624 44.0737 38.7306 44.0737 42.6825 43.7815C44.9128 40.5048 46.898 37.0677 48.622 33.4985C46.8992 29.9294 44.9151 26.4924 42.686 23.2155C38.7341 22.9233 34.7659 22.9233 30.814 23.2155C28.5849 26.4924 26.6008 29.9294 24.878 33.4985C26.6008 37.0676 28.5849 40.5047 30.814 43.7815M51.296 27.2335C51.6297 26.3352 51.9365 25.4474 52.2165 24.57C51.2989 24.3709 50.377 24.1924 49.4515 24.0345C50.0888 25.0878 50.7037 26.1543 51.296 27.2335ZM16.205 25.928C15.015 26.313 13.8903 26.733 12.831 27.188C7.7035 29.386 5.25 31.871 5.25 33.4985C5.25 35.126 7.7 37.611 12.831 39.809C13.8903 40.264 15.015 40.684 16.205 41.069C16.982 38.619 17.9445 36.078 19.0925 33.4985C17.9915 31.03 17.0276 28.5027 16.205 25.928ZM21.28 24.57C21.5623 25.445 21.8703 26.3317 22.204 27.23C22.7975 26.152 23.4136 25.0866 24.052 24.0345C23.107 24.1955 22.1807 24.374 21.28 24.57ZM57.2985 41.069C58.4885 40.684 59.6132 40.264 60.6725 39.809C65.7965 37.611 68.2465 35.126 68.2465 33.4985C68.2465 31.871 65.7965 29.386 60.6655 27.188C59.6062 26.733 58.4803 26.313 57.288 25.928C56.518 28.378 55.552 30.919 54.404 33.4985C55.552 36.078 56.5145 38.619 57.2915 41.069M52.2165 42.4305C51.9318 41.5509 51.6238 40.6619 51.2925 39.7635C50.6991 40.8427 50.0829 41.9093 49.4445 42.9625C50.3895 42.7992 51.3158 42.6219 52.2165 42.4305Z" fill="#00D9FF"/>
</svg>
