<svg width="70" height="70" viewBox="0 0 70 70" fill="none" xmlns="http://www.w3.org/2000/svg">
<path d="M0 4C0 1.79086 1.79086 0 4 0H66C68.2091 0 70 1.79086 70 4V66C70 68.2091 68.2091 70 66 70H4C1.79086 70 0 68.2091 0 66V4Z" fill="#161D2D"/>
<path d="M35 14C27 14 22 18.6667 20 28C23 23.3333 26.5 21.5833 30.5 22.75C32.7822 23.4156 34.4134 25.3473 36.219 27.4855C39.1603 30.9686 42.5646 35 50 35C58 35 63 30.3333 65 21C62 25.6667 58.5 27.4167 54.5 26.25C52.2178 25.5844 50.5866 23.6527 48.781 21.5145C45.8397 18.0314 42.4354 14 35 14ZM20 35C12 35 7 39.6667 5 49C8 44.3333 11.5 42.5833 15.5 43.75C17.7822 44.4156 19.4134 46.3473 21.219 48.4855C24.1603 51.9686 27.5646 56 35 56C43 56 48 51.3333 50 42C47 46.6667 43.5 48.4167 39.5 47.25C37.2178 46.5844 35.5866 44.6527 33.781 42.5145C30.8397 39.0314 27.4354 35 20 35Z" fill="#16BECB"/>
</svg>
