<svg width="62" height="63" viewBox="0 0 62 63" fill="#3178C6" xmlns="http://www.w3.org/2000/svg">
<path d="M58.755 0.875H3.245C1.65994 0.875 0.375 2.15994 0.375 3.745V59.255C0.375 60.8401 1.65994 62.125 3.245 62.125H58.755C60.3401 62.125 61.625 60.8401 61.625 59.255V3.745C61.625 2.15994 60.3401 0.875 58.755 0.875Z" fill="#3178C6"/>
<path fill-rule="evenodd" clip-rule="evenodd" d="M35.9108 48.4728V55.1841C37.1302 55.7859 38.4297 56.2095 39.7696 56.4419C41.3179 56.7277 42.8895 56.8683 44.4639 56.8619C45.9984 56.8692 47.5294 56.7145 49.0314 56.4003C50.38 56.1278 51.6667 55.6087 52.8268 54.8691C53.9037 54.1739 54.7914 53.2223 55.4102 52.0997C56.5184 49.7751 56.6646 47.1071 55.8171 44.6753C55.4594 43.7659 54.9265 42.9357 54.2486 42.2319C53.521 41.4834 52.6945 40.838 51.7921 40.3134C50.7531 39.7049 49.6736 39.1685 48.5611 38.7078C47.6861 38.3447 46.8986 37.9918 46.1986 37.6491C45.5769 37.3514 44.9819 37.0008 44.4202 36.6013C43.9803 36.2928 43.5982 35.9093 43.2914 35.4681C43.0265 35.0676 42.8885 34.5964 42.8955 34.1163C42.8897 33.6743 43.0128 33.2402 43.2499 32.8672C43.5074 32.4768 43.8508 32.1505 44.2539 31.9134C44.7467 31.6233 45.2829 31.4143 45.8421 31.2944C46.5285 31.1419 47.2302 31.0685 47.9333 31.0756C48.5247 31.0777 49.1152 31.1201 49.7008 31.2025C50.3332 31.288 50.9589 31.4174 51.5733 31.5897C52.1983 31.7629 52.8096 31.9823 53.4021 32.2459C53.977 32.5022 54.527 32.8113 55.0449 33.1691V26.9063C53.9667 26.4983 52.8485 26.2051 51.7089 26.0313C50.3328 25.831 48.9433 25.7367 47.5527 25.7491C46.0326 25.7409 44.517 25.9134 43.0377 26.2631C41.7006 26.5687 40.4292 27.1118 39.2839 27.8666C38.2201 28.5752 37.3417 29.5287 36.7224 30.6469C36.0661 31.8887 35.7413 33.2788 35.7796 34.6828C35.7311 36.5395 36.3427 38.3533 37.5055 39.8016C38.9322 41.4074 40.7311 42.6385 42.7446 43.3869C43.6633 43.766 44.5201 44.1372 45.3149 44.5003C46.032 44.8194 46.7212 45.1977 47.3755 45.6313C47.9032 45.9745 48.3667 46.4077 48.7449 46.9109C49.0774 47.3674 49.2539 47.919 49.248 48.4838C49.251 48.9069 49.1424 49.3235 48.933 49.6913C48.7004 50.0865 48.3735 50.4179 47.9814 50.6559C47.4909 50.955 46.9543 51.1708 46.3933 51.2947C45.6626 51.4581 44.9152 51.5352 44.1664 51.5244C42.6971 51.5217 41.2395 51.2626 39.8593 50.7588C38.4173 50.2384 37.0801 49.4642 35.9108 48.4728ZM24.6364 31.7647H33.3864V26.2369H8.98926V31.7647H17.6999V56.3828H24.6364V31.7647Z" fill="white"/>
</svg>
