<svg width="331.25px" height="46.4px" xmlns="http://www.w3.org/2000/svg" viewBox="84.375 51.8 331.25 46.4" style="background: rgba(0, 0, 0, 0);" preserveAspectRatio="xMidYMid"><defs><filter id="editing-hole" x="-100%" y="-100%" width="300%" height="300%"><feFlood flood-color="#000000" result="black"></feFlood><feMorphology operator="dilate" radius="2" in="SourceGraphic" result="erode"></feMorphology><feGaussianBlur in="erode" stdDeviation="4" result="blur"></feGaussianBlur><feOffset in="blur" dx="2" dy="2" result="offset"></feOffset><feComposite operator="atop" in="offset" in2="black" result="merge"></feComposite><feComposite operator="in" in="merge" in2="SourceGraphic" result="inner-shadow"></feComposite></filter></defs><g filter="url(#editing-hole)"><g transform="translate(136.74380493164062, 83.31000328063965)"><path d="M14.25-2.38L2.38-2.38L2.38-4.75L0-4.75L0-7.13L4.75-7.13L4.75-4.75L11.88-4.75L11.88-19L16.63-19L16.63-4.75L14.25-4.75L14.25-2.38ZM35.63-2.38L21.38-2.38L21.38-4.75L19-4.75L19-14.25L23.75-14.25L23.75-4.75L30.88-4.75L30.88-14.25L35.63-14.25L35.63-2.38ZM54.63-2.38L40.38-2.38L40.38-4.75L38-4.75L38-7.13L40.38-7.13L40.38-9.50L49.88-9.50L49.88-11.88L40.38-11.88L40.38-14.25L52.25-14.25L52.25-11.88L54.63-11.88L54.63-2.38ZM42.75-7.13L42.75-4.75L49.88-4.75L49.88-7.13L42.75-7.13ZM61.75-2.38L57-2.38L57-14.25L71.25-14.25L71.25-11.88L73.63-11.88L73.63-2.38L68.88-2.38L68.88-11.88L61.75-11.88L61.75-2.38ZM109.25-2.38L97.38-2.38L97.38-4.75L95-4.75L95-16.63L97.38-16.63L97.38-19L109.25-19L109.25-16.63L111.63-16.63L111.63-4.75L109.25-4.75L109.25-2.38ZM99.75-16.63L99.75-4.75L106.88-4.75L106.88-16.63L99.75-16.63ZM121.13-14.25L121.13-11.88L123.50-11.88L123.50-9.50L121.13-9.50L121.13-2.38L116.38-2.38L116.38-14.25L121.13-14.25ZM123.50-14.25L130.63-14.25L130.63-11.88L123.50-11.88L123.50-14.25ZM149.63-2.38L135.38-2.38L135.38-4.75L133-4.75L133-11.88L135.38-11.88L135.38-14.25L144.88-14.25L144.88-19L149.63-19L149.63-2.38ZM137.75-11.88L137.75-4.75L144.88-4.75L144.88-11.88L137.75-11.88ZM166.25-2.38L154.38-2.38L154.38-4.75L152-4.75L152-11.88L154.38-11.88L154.38-14.25L166.25-14.25L166.25-11.88L168.63-11.88L168.63-4.75L166.25-4.75L166.25-2.38ZM156.75-11.88L156.75-4.75L163.88-4.75L163.88-11.88L156.75-11.88ZM175.75-2.38L171-2.38L171-14.25L185.25-14.25L185.25-11.88L187.63-11.88L187.63-2.38L182.88-2.38L182.88-11.88L175.75-11.88L175.75-2.38ZM204.25-2.38L192.38-2.38L192.38-4.75L190-4.75L190-11.88L192.38-11.88L192.38-14.25L204.25-14.25L204.25-11.88L206.63-11.88L206.63-7.13L194.75-7.13L194.75-4.75L204.25-4.75L204.25-2.38ZM194.75-11.88L194.75-9.50L201.88-9.50L201.88-11.88L194.75-11.88ZM225.63-2.38L209-2.38L209-4.75L211.38-4.75L211.38-7.13L213.75-7.13L213.75-9.50L216.13-9.50L216.13-11.88L209-11.88L209-14.25L225.63-14.25L225.63-11.88L223.25-11.88L223.25-9.50L220.88-9.50L220.88-7.13L218.50-7.13L218.50-4.75L225.63-4.75L225.63-2.38Z" fill="#1e3a8a"></path></g></g><style>text {
  font-size: 64px;
  font-family: Arial Black;
  dominant-baseline: central;
  text-anchor: middle;
}</style></svg>